<mxfile host="app.diagrams.net" agent="Mozilla/5.0 (Windows NT 10.0; Win64; x64) AppleWebKit/537.36 (KHTML, like Gecko) Chrome/131.0.0.0 Safari/537.36" version="25.0.1">
  <diagram name="Page-1" id="8ce9d11a-91a2-4d17-14d8-a56ed91bf033">
    <mxGraphModel dx="1149" dy="625" grid="1" gridSize="10" guides="1" tooltips="1" connect="1" arrows="1" fold="1" page="1" pageScale="1" pageWidth="1100" pageHeight="850" background="none" math="0" shadow="0">
      <root>
        <mxCell id="0" />
        <mxCell id="1" parent="0" />
        <mxCell id="GlGCvVVbeE7i8tFiUGZ--4" value="" style="edgeStyle=none;curved=1;rounded=0;orthogonalLoop=1;jettySize=auto;html=1;fontSize=12;startSize=8;endSize=8;" edge="1" parent="1" source="GlGCvVVbeE7i8tFiUGZ--1" target="GlGCvVVbeE7i8tFiUGZ--3">
          <mxGeometry relative="1" as="geometry" />
        </mxCell>
        <mxCell id="GlGCvVVbeE7i8tFiUGZ--1" value="開始" style="strokeWidth=2;html=1;shape=mxgraph.flowchart.start_1;whiteSpace=wrap;" vertex="1" parent="1">
          <mxGeometry x="360" y="140" width="100" height="60" as="geometry" />
        </mxCell>
        <mxCell id="GlGCvVVbeE7i8tFiUGZ--5" value="" style="edgeStyle=none;curved=1;rounded=0;orthogonalLoop=1;jettySize=auto;html=1;fontSize=12;startSize=8;endSize=8;" edge="1" parent="1" source="GlGCvVVbeE7i8tFiUGZ--2" target="GlGCvVVbeE7i8tFiUGZ--3">
          <mxGeometry relative="1" as="geometry" />
        </mxCell>
        <mxCell id="GlGCvVVbeE7i8tFiUGZ--2" value="IMU資料" style="shape=parallelogram;html=1;strokeWidth=2;perimeter=parallelogramPerimeter;whiteSpace=wrap;rounded=1;arcSize=12;size=0.23;" vertex="1" parent="1">
          <mxGeometry x="510" y="230" width="100" height="60" as="geometry" />
        </mxCell>
        <mxCell id="GlGCvVVbeE7i8tFiUGZ--7" value="" style="edgeStyle=none;curved=1;rounded=0;orthogonalLoop=1;jettySize=auto;html=1;fontSize=12;startSize=8;endSize=8;" edge="1" parent="1" source="GlGCvVVbeE7i8tFiUGZ--3" target="GlGCvVVbeE7i8tFiUGZ--6">
          <mxGeometry relative="1" as="geometry" />
        </mxCell>
        <mxCell id="GlGCvVVbeE7i8tFiUGZ--3" value="計算pitch, roll" style="rounded=0;whiteSpace=wrap;html=1;strokeWidth=2;" vertex="1" parent="1">
          <mxGeometry x="350" y="230" width="120" height="60" as="geometry" />
        </mxCell>
        <mxCell id="GlGCvVVbeE7i8tFiUGZ--9" value="" style="edgeStyle=none;curved=1;rounded=0;orthogonalLoop=1;jettySize=auto;html=1;fontSize=12;startSize=8;endSize=8;" edge="1" parent="1" source="GlGCvVVbeE7i8tFiUGZ--6" target="GlGCvVVbeE7i8tFiUGZ--8">
          <mxGeometry relative="1" as="geometry" />
        </mxCell>
        <mxCell id="GlGCvVVbeE7i8tFiUGZ--6" value="計算平台法向量" style="rounded=0;whiteSpace=wrap;html=1;strokeWidth=2;" vertex="1" parent="1">
          <mxGeometry x="350" y="330" width="120" height="60" as="geometry" />
        </mxCell>
        <mxCell id="GlGCvVVbeE7i8tFiUGZ--11" value="" style="edgeStyle=none;curved=1;rounded=0;orthogonalLoop=1;jettySize=auto;html=1;fontSize=12;startSize=8;endSize=8;" edge="1" parent="1" source="GlGCvVVbeE7i8tFiUGZ--8" target="GlGCvVVbeE7i8tFiUGZ--10">
          <mxGeometry relative="1" as="geometry" />
        </mxCell>
        <mxCell id="GlGCvVVbeE7i8tFiUGZ--8" value="逆向運動學" style="rounded=0;whiteSpace=wrap;html=1;strokeWidth=2;" vertex="1" parent="1">
          <mxGeometry x="350" y="430" width="120" height="60" as="geometry" />
        </mxCell>
        <mxCell id="GlGCvVVbeE7i8tFiUGZ--10" value="控制伺服馬達" style="rounded=0;whiteSpace=wrap;html=1;strokeWidth=2;" vertex="1" parent="1">
          <mxGeometry x="350" y="520" width="120" height="60" as="geometry" />
        </mxCell>
        <mxCell id="GlGCvVVbeE7i8tFiUGZ--17" value="" style="endArrow=none;html=1;rounded=0;fontSize=12;startSize=8;endSize=8;curved=1;exitX=0;exitY=0.5;exitDx=0;exitDy=0;" edge="1" parent="1" source="GlGCvVVbeE7i8tFiUGZ--10">
          <mxGeometry width="50" height="50" relative="1" as="geometry">
            <mxPoint x="150" y="340" as="sourcePoint" />
            <mxPoint x="280" y="550" as="targetPoint" />
          </mxGeometry>
        </mxCell>
        <mxCell id="GlGCvVVbeE7i8tFiUGZ--18" value="" style="endArrow=none;html=1;rounded=0;fontSize=12;startSize=8;endSize=8;curved=1;" edge="1" parent="1">
          <mxGeometry width="50" height="50" relative="1" as="geometry">
            <mxPoint x="280" y="550" as="sourcePoint" />
            <mxPoint x="280" y="260" as="targetPoint" />
          </mxGeometry>
        </mxCell>
        <mxCell id="GlGCvVVbeE7i8tFiUGZ--19" value="" style="endArrow=classic;html=1;rounded=0;fontSize=12;startSize=8;endSize=8;curved=1;entryX=0;entryY=0.5;entryDx=0;entryDy=0;" edge="1" parent="1" target="GlGCvVVbeE7i8tFiUGZ--3">
          <mxGeometry width="50" height="50" relative="1" as="geometry">
            <mxPoint x="280" y="260" as="sourcePoint" />
            <mxPoint x="190" y="200" as="targetPoint" />
          </mxGeometry>
        </mxCell>
      </root>
    </mxGraphModel>
  </diagram>
</mxfile>
